<svg xmlns="http://www.w3.org/2000/svg" viewBox="0 0 800 520">
  <rect width="800" height="520" fill="white"/>
  
  <style>
    .header { fill: #6B5B95; stroke: #4a3f66; stroke-width: 1; }
    .label { fill: white; font-family: Arial, sans-serif; font-size: 11px; font-weight: bold; text-anchor: middle; }
    .cell-text { fill: #333; font-family: Arial, sans-serif; font-size: 9px; text-anchor: middle; }
    .grid { fill: none; stroke: #ccc; stroke-width: 0.5; }
  </style>

  <g class="header">
    <rect x="130" y="10" width="105" height="45" rx="2"/><rect x="240" y="10" width="105" height="45" rx="2"/>
    <rect x="350" y="10" width="105" height="45" rx="2"/><rect x="460" y="10" width="105" height="45" rx="2"/>
    <rect x="570" y="10" width="105" height="45" rx="2"/><rect x="680" y="10" width="105" height="45" rx="2"/>
  </g>
  <g class="label">
    <text x="182" y="38">Why</text><text x="292" y="38">How</text><text x="402" y="38">What</text>
    <text x="512" y="38">Who</text><text x="622" y="38">Where</text><text x="732" y="38">When</text>
  </g>

  <g class="header">
    <rect x="10" y="60" width="115" height="70" rx="2"/><rect x="10" y="135" width="115" height="70" rx="2"/>
    <rect x="10" y="210" width="115" height="70" rx="2"/><rect x="10" y="285" width="115" height="70" rx="2"/>
    <rect x="10" y="360" width="115" height="70" rx="2"/>
  </g>
  <g class="label">
    <text x="67" y="100">Contextual</text><text x="67" y="175">Conceptual</text>
    <text x="67" y="250">Logical</text><text x="67" y="325">Physical</text>
    <text x="67" y="400">Detailed</text>
  </g>

  <g class="grid">
    <rect x="130" y="60" width="655" height="370"/>
    <line x1="235" y1="60" x2="235" y2="430"/><line x1="345" y1="60" x2="345" y2="430"/>
    <line x1="455" y1="60" x2="455" y2="430"/><line x1="565" y1="60" x2="565" y2="430"/>
    <line x1="675" y1="60" x2="675" y2="430"/>
    <line x1="130" y1="135" x2="785" y2="135"/><line x1="130" y1="210" x2="785" y2="210"/>
    <line x1="130" y1="285" x2="785" y2="285"/><line x1="130" y1="360" x2="785" y2="360"/>
  </g>

  <g class="cell-text">
    <text x="182" y="100">Goal List</text><text x="292" y="100">Process List</text><text x="402" y="100">Material List</text>
    <text x="512" y="95">Org. Unit &amp;</text><text x="512" y="110">Role List</text>
    <text x="622" y="95">Geog. Locations</text><text x="622" y="110">List</text>
    <text x="732" y="100">Event List</text>
    
    <text x="182" y="170">Goal Rel.</text><text x="292" y="175">Process Model</text><text x="402" y="170">Entity Rel.</text>
    <text x="512" y="170">Roles Rel.</text><text x="622" y="175">Locations Model</text><text x="732" y="175">Event Model</text>
    
    <text x="182" y="250">Rules Diag.</text><text x="292" y="250">Process Diag.</text><text x="402" y="250">Data Model Diag.</text>
    <text x="512" y="245">Role Rel.</text><text x="512" y="260">Diagram</text>
    <text x="622" y="250">Locations Diag.</text><text x="732" y="250">Event Diag.</text>
    
    <text x="182" y="320">Rules Spec.</text><text x="292" y="315">Process Funct.</text><text x="292" y="330">Specification</text>
    <text x="402" y="315">Data Entity</text><text x="402" y="330">Specification</text>
    <text x="512" y="325">Role Spec.</text><text x="622" y="315">Location</text><text x="622" y="330">Specification</text>
    <text x="732" y="315">Event</text><text x="732" y="330">Specification</text>
    
    <text x="182" y="400">Rules Details</text><text x="292" y="400">Process Details</text><text x="402" y="400">Data Details</text>
    <text x="512" y="400">Role Details</text><text x="622" y="400">Location Details</text><text x="732" y="400">Event Details</text>
  </g>
</svg>



